<svg width="144" height="63" viewBox="0 0 144 63" fill="none" xmlns="http://www.w3.org/2000/svg">
<rect x="37" y="50" width="101" height="5" rx="2.5" fill="white"/>
<path d="M36.886 26.716C36.886 26.348 36.886 25.934 36.886 25.474C36.886 24.9833 36.9013 24.4927 36.932 24.002C36.9627 23.4807 37.0087 22.99 37.07 22.53C37.162 22.0393 37.2847 21.61 37.438 21.242C37.6833 20.69 38.0667 20.322 38.588 20.138C39.1093 19.9233 39.6767 19.8313 40.29 19.862C40.934 19.862 41.44 19.9693 41.808 20.184C42.176 20.3987 42.452 20.69 42.636 21.058C42.82 21.3953 42.9273 21.794 42.958 22.254C43.0193 22.6833 43.05 23.1433 43.05 23.634C43.326 23.1433 43.694 22.7447 44.154 22.438C44.6447 22.1313 45.1353 21.886 45.626 21.702C46.1167 21.518 46.5613 21.3953 46.96 21.334C47.3587 21.242 47.5887 21.196 47.65 21.196C48.4167 21.1347 49.1067 21.1193 49.72 21.15C50.364 21.1807 51.0693 21.3187 51.836 21.564C52.3267 21.748 52.8327 22.0087 53.354 22.346C53.8753 22.6527 54.3353 23.0207 54.734 23.45C55.1327 23.8793 55.3933 24.3547 55.516 24.876C55.6693 25.3667 55.608 25.888 55.332 26.44C54.9027 27.2067 54.4273 27.59 53.906 27.59C53.3847 27.5593 52.8173 27.4673 52.204 27.314C51.8667 27.2527 51.468 27.1147 51.008 26.9C50.548 26.6853 50.1493 26.5473 49.812 26.486C48.7693 26.3327 47.8493 26.4093 47.052 26.716C46.2547 27.0227 45.5647 27.3907 44.982 27.82C44.3073 28.3413 43.7247 28.9393 43.234 29.614V36.238C43.234 37.066 43.2187 37.9247 43.188 38.814C43.188 39.7033 43.0653 40.516 42.82 41.252C42.6053 41.9573 42.222 42.54 41.67 43C41.1487 43.4293 40.382 43.6133 39.37 43.552C38.818 43.5213 38.3273 43.2607 37.898 42.77C37.4687 42.2487 37.208 41.7427 37.116 41.252C37.0547 40.792 37.0087 40.24 36.978 39.596C36.9473 38.952 36.9167 38.2773 36.886 37.572C36.886 36.8667 36.886 36.1613 36.886 35.456C36.886 34.72 36.886 34.0453 36.886 33.432V26.716ZM84.2329 32.282C84.2943 33.2633 84.3249 34.1987 84.3249 35.088C84.3249 35.9467 84.2943 36.8667 84.2329 37.848C84.2329 38.216 84.2329 38.63 84.2329 39.09C84.2329 39.55 84.2023 39.9947 84.1409 40.424C84.0796 40.8533 83.9723 41.252 83.8189 41.62C83.6656 41.988 83.4356 42.2793 83.1289 42.494C82.7609 42.7393 82.3469 42.908 81.8869 43C81.4269 43.0613 80.9976 43.0307 80.5989 42.908C80.2003 42.7853 79.8476 42.5553 79.5409 42.218C79.2649 41.8807 79.1116 41.4053 79.0809 40.792C78.9889 39.3813 78.9429 37.9707 78.9429 36.56C78.9429 35.8547 78.9276 35.18 78.8969 34.536C78.8969 33.892 78.9123 32.9873 78.9429 31.822C78.9429 31.2393 78.8969 30.58 78.8049 29.844C78.7129 29.0773 78.4829 28.5407 78.1149 28.234C77.8389 27.9887 77.5323 27.8507 77.1949 27.82C76.8576 27.7587 76.5203 27.7893 76.1829 27.912C75.8763 28.0347 75.6003 28.2647 75.3549 28.602C75.1096 28.9087 74.9409 29.3073 74.8489 29.798C74.8489 30.1967 74.8336 30.6107 74.8029 31.04C74.8029 31.4387 74.8183 31.822 74.8489 32.19C74.8796 33.1713 74.8949 34.1067 74.8949 34.996C74.8949 35.8547 74.8796 36.7747 74.8489 37.756C74.8183 38.1547 74.8029 38.584 74.8029 39.044C74.8336 39.504 74.8336 39.964 74.8029 40.424C74.7723 40.8533 74.6803 41.252 74.5269 41.62C74.4043 41.988 74.1743 42.2793 73.8369 42.494C73.4689 42.7393 73.0703 42.8927 72.6409 42.954C72.2423 42.9847 71.8589 42.9233 71.4909 42.77C71.1536 42.586 70.8469 42.31 70.5709 41.942C70.3256 41.574 70.1876 41.0833 70.1569 40.47C70.0956 39.7647 70.0496 39.1207 70.0189 38.538C70.0189 37.9247 70.0189 37.2807 70.0189 36.606C70.0189 35.9007 70.0343 35.18 70.0649 34.444C70.0956 33.6773 70.0803 32.9413 70.0189 32.236C70.0189 32.0213 70.0036 31.776 69.9729 31.5C69.9729 31.1933 69.9576 30.8867 69.9269 30.58C69.9269 30.2733 69.8963 29.982 69.8349 29.706C69.8043 29.3993 69.7429 29.154 69.6509 28.97C69.4056 28.5407 68.9609 28.2647 68.3169 28.142C67.7036 28.0193 67.1823 28.0653 66.7529 28.28C66.3236 28.4947 66.0016 28.7707 65.7869 29.108C65.5723 29.4453 65.4189 29.8133 65.3269 30.212C65.2349 30.6107 65.1889 31.04 65.1889 31.5C65.1889 31.9293 65.1889 32.3433 65.1889 32.742C65.1889 34.7353 65.1889 36.468 65.1889 37.94C65.2196 39.3813 65.0663 40.5467 64.7289 41.436C64.5756 41.896 64.2536 42.2487 63.7629 42.494C63.3029 42.7393 62.7969 42.862 62.2449 42.862C61.7236 42.862 61.2329 42.7393 60.7729 42.494C60.3129 42.2487 60.0063 41.8653 59.8529 41.344C59.7609 41.0067 59.6689 40.5313 59.5769 39.918C59.5156 39.274 59.4696 38.5687 59.4389 37.802C59.4083 37.0353 59.3929 36.2687 59.3929 35.502C59.3929 34.7047 59.3929 33.984 59.3929 33.34V26.716C59.3623 26.0107 59.3469 25.244 59.3469 24.416C59.3469 23.588 59.4696 22.8367 59.7149 22.162C59.9296 21.5793 60.2669 21.2113 60.7269 21.058C61.1869 20.874 61.6623 20.7973 62.1529 20.828C62.7049 20.828 63.1343 20.9813 63.4409 21.288C63.7783 21.564 64.0236 21.9167 64.1769 22.346C64.3303 22.7447 64.4223 23.2047 64.4529 23.726C64.4836 24.2167 64.5143 24.692 64.5449 25.152C64.8823 24.3853 65.2809 23.7567 65.7409 23.266C66.2316 22.7447 66.9216 22.4073 67.8109 22.254C70.0803 21.8247 71.8896 22.4073 73.2389 24.002C73.8523 23.3887 74.6343 22.8827 75.5849 22.484C76.3209 22.208 77.0723 22.0853 77.8389 22.116C78.6056 22.116 79.3263 22.254 80.0009 22.53C80.7063 22.806 81.3349 23.2047 81.8869 23.726C82.4696 24.2473 82.9296 24.876 83.2669 25.612C83.7269 26.5933 83.9876 27.682 84.0489 28.878C84.1103 30.074 84.1716 31.2087 84.2329 32.282ZM93.802 25.566C93.802 26.4247 93.802 27.3907 93.802 28.464C93.8327 29.5373 93.848 30.6567 93.848 31.822C93.848 32.9567 93.848 34.0913 93.848 35.226C93.848 36.33 93.8327 37.3573 93.802 38.308C93.7713 38.768 93.7253 39.274 93.664 39.826C93.6027 40.3473 93.48 40.838 93.296 41.298C93.112 41.758 92.8207 42.1413 92.422 42.448C92.054 42.724 91.548 42.8467 90.904 42.816C89.9533 42.7547 89.2633 42.3407 88.834 41.574C88.4353 40.8073 88.2053 39.734 88.144 38.354C88.144 37.6487 88.1287 36.836 88.098 35.916C88.098 34.996 88.0827 34.0607 88.052 33.11C88.052 32.1593 88.052 31.2393 88.052 30.35C88.052 29.43 88.052 28.602 88.052 27.866C88.052 27.4367 88.0367 26.9153 88.006 26.302C88.006 25.6887 88.0213 25.06 88.052 24.416C88.0827 23.772 88.1593 23.1587 88.282 22.576C88.4047 21.9627 88.604 21.4567 88.88 21.058C89.0947 20.8127 89.4013 20.6287 89.8 20.506C90.1987 20.3527 90.6127 20.276 91.042 20.276C91.502 20.276 91.9313 20.3527 92.33 20.506C92.7593 20.6593 93.066 20.874 93.25 21.15C93.3727 21.334 93.4647 21.5947 93.526 21.932C93.5873 22.2693 93.6333 22.6527 93.664 23.082C93.7253 23.4807 93.756 23.91 93.756 24.37C93.7867 24.7993 93.802 25.198 93.802 25.566ZM92.054 16.274C91.1033 16.5193 90.306 16.4273 89.662 15.998C89.0487 15.538 88.6653 14.8633 88.512 13.974C88.3893 13.33 88.4353 12.7627 88.65 12.272C88.8647 11.7813 89.1867 11.4133 89.616 11.168C90.0453 10.892 90.536 10.7693 91.088 10.8C91.64 10.8307 92.192 11.0453 92.744 11.444C93.2653 11.812 93.6333 12.2413 93.848 12.732C94.0933 13.2227 94.17 13.698 94.078 14.158C94.0167 14.618 93.8173 15.0473 93.48 15.446C93.1427 15.814 92.6673 16.09 92.054 16.274ZM98.384 26.578C98.384 25.8727 98.3687 25.1213 98.338 24.324C98.338 23.5267 98.476 22.806 98.752 22.162C98.9974 21.5793 99.396 21.1653 99.948 20.92C100.531 20.644 101.098 20.5827 101.65 20.736C102.202 20.828 102.631 20.9967 102.938 21.242C103.245 21.4873 103.459 21.7787 103.582 22.116C103.735 22.4227 103.827 22.7907 103.858 23.22C103.889 23.6187 103.919 24.0173 103.95 24.416C104.257 23.864 104.64 23.4193 105.1 23.082C105.56 22.7447 106.035 22.4687 106.526 22.254C107.017 22.0393 107.477 21.886 107.906 21.794C108.366 21.702 108.719 21.656 108.964 21.656C110.129 21.656 111.279 21.9167 112.414 22.438C113.579 22.9287 114.545 23.634 115.312 24.554C115.741 25.106 116.063 25.6887 116.278 26.302C116.523 26.8847 116.692 27.498 116.784 28.142C116.907 28.786 116.983 29.4453 117.014 30.12C117.045 30.764 117.075 31.4233 117.106 32.098C117.259 34.0607 117.259 36.008 117.106 37.94C117.075 38.3387 117.06 38.7987 117.06 39.32C117.06 39.8413 117.014 40.3627 116.922 40.884C116.861 41.3747 116.723 41.8193 116.508 42.218C116.324 42.586 116.002 42.816 115.542 42.908C114.898 43.0613 114.361 43.092 113.932 43C113.533 42.9387 113.211 42.8007 112.966 42.586C112.721 42.3713 112.537 42.0953 112.414 41.758C112.291 41.4207 112.184 41.0373 112.092 40.608C112.031 40.2707 111.969 39.8873 111.908 39.458C111.877 38.998 111.847 38.538 111.816 38.078C111.816 37.618 111.801 37.1733 111.77 36.744C111.77 36.284 111.77 35.87 111.77 35.502C111.77 34.9193 111.755 34.2753 111.724 33.57C111.693 32.8647 111.693 32.2053 111.724 31.592C111.724 30.1507 111.341 29.062 110.574 28.326C109.838 27.5593 108.826 27.2373 107.538 27.36C106.557 27.4827 105.698 27.8813 104.962 28.556C104.226 29.2 103.873 30.0433 103.904 31.086C103.904 31.4847 103.904 31.8527 103.904 32.19C103.904 32.5273 103.889 32.8647 103.858 33.202C103.858 33.5393 103.858 33.9073 103.858 34.306C103.858 34.7047 103.858 35.1493 103.858 35.64C103.858 36.652 103.858 37.7253 103.858 38.86C103.858 39.964 103.72 40.8687 103.444 41.574C103.199 42.31 102.785 42.816 102.202 43.092C101.619 43.368 100.929 43.2913 100.132 42.862C99.7947 42.678 99.5187 42.4327 99.304 42.126C99.12 41.7887 98.9667 41.436 98.844 41.068C98.752 40.7 98.6907 40.332 98.66 39.964C98.6294 39.5653 98.5987 39.1973 98.568 38.86C98.476 37.848 98.4147 36.9127 98.384 36.054C98.384 35.1647 98.384 34.214 98.384 33.202V26.578ZM135.286 10.846C135.868 10.6927 136.374 10.6773 136.804 10.8C137.264 10.892 137.647 11.0913 137.954 11.398C138.291 11.7047 138.536 12.088 138.69 12.548C138.874 13.008 138.966 13.514 138.966 14.066C138.996 15.5993 138.996 16.7953 138.966 17.654C138.966 18.5127 138.966 19.264 138.966 19.908V34.03C138.966 35.686 138.966 37.066 138.966 38.17C138.966 39.274 138.904 40.1787 138.782 40.884C138.69 41.5587 138.506 42.0647 138.23 42.402C137.984 42.7393 137.601 42.9693 137.08 43.092C136.558 43.2453 135.868 43.322 135.01 43.322C134.182 43.322 133.139 43.322 131.882 43.322C128.57 43.322 125.948 42.54 124.016 40.976C122.114 39.412 121.102 36.928 120.98 33.524C120.918 32.052 121.102 30.7027 121.532 29.476C121.961 28.2493 122.59 27.2067 123.418 26.348C124.276 25.4587 125.319 24.784 126.546 24.324C127.803 23.8333 129.229 23.6033 130.824 23.634H133.354V15.4C133.354 14.9093 133.354 14.434 133.354 13.974C133.354 13.4833 133.4 13.0387 133.492 12.64C133.584 12.2107 133.768 11.8427 134.044 11.536C134.32 11.2293 134.734 10.9993 135.286 10.846ZM127.282 36.376C127.926 37.2653 129.091 37.756 130.778 37.848C131.115 37.8787 131.437 37.894 131.744 37.894C132.05 37.8633 132.326 37.8173 132.572 37.756C132.848 37.7253 133.108 37.6793 133.354 37.618V29.108C132.28 28.924 131.299 28.8167 130.41 28.786C129.551 28.7247 128.692 29.0313 127.834 29.706C127.374 30.074 127.021 30.5493 126.776 31.132C126.53 31.684 126.392 32.282 126.362 32.926C126.331 33.5393 126.392 34.1527 126.546 34.766C126.699 35.3793 126.944 35.916 127.282 36.376Z" fill="white"/>
<path d="M32.23 21.085C32.45 22.845 32.5783 24.8983 32.615 27.245C32.6517 29.555 32.615 31.9017 32.505 34.285C32.4317 36.6317 32.2667 38.8683 32.01 40.995C31.7533 43.085 31.4417 44.7717 31.075 46.055C30.8183 46.825 30.5067 47.6317 30.14 48.475C29.81 49.2817 29.4433 50.015 29.04 50.675C28.4533 51.665 27.7383 52.545 26.895 53.315C26.0517 54.0483 25.1167 54.69 24.09 55.24C23.1 55.7533 22.0367 56.1567 20.9 56.45C19.8 56.7433 18.7 56.9083 17.6 56.945C15.6567 57.0183 13.805 56.7433 12.045 56.12C10.3217 55.46 8.72667 54.4333 7.26 53.04C6.16 51.9767 5.28 50.84 4.62 49.63C3.96 48.42 3.44667 47.155 3.08 45.835C2.71333 44.4783 2.475 43.085 2.365 41.655C2.29167 40.225 2.255 38.7583 2.255 37.255C2.255 36.5583 2.23667 35.6967 2.2 34.67C2.2 33.6067 2.2 32.525 2.2 31.425C2.2 30.2883 2.2 29.1883 2.2 28.125C2.2 27.0617 2.21833 26.1633 2.255 25.43C2.255 24.9533 2.255 24.44 2.255 23.89C2.255 23.3033 2.27333 22.735 2.31 22.185C2.38333 21.5983 2.49333 21.0483 2.64 20.535C2.78667 19.985 3.00667 19.49 3.3 19.05C3.63 18.5733 4.08833 18.225 4.675 18.005C5.26167 17.785 5.86667 17.675 6.49 17.675C7.15 17.675 7.77333 17.8033 8.36 18.06C8.94667 18.3167 9.42333 18.6833 9.79 19.16C9.97333 19.4533 10.1017 19.7467 10.175 20.04C10.2483 20.3333 10.3033 20.6633 10.34 21.03C10.4133 22.24 10.45 23.615 10.45 25.155C10.4867 26.695 10.4867 28.1983 10.45 29.665C10.45 31.095 10.4317 32.415 10.395 33.625C10.3583 34.835 10.34 35.7333 10.34 36.32C10.34 38.52 10.45 40.5183 10.67 42.315C10.89 44.075 11.4033 45.5417 12.21 46.715C12.9433 47.7783 13.805 48.4567 14.795 48.75C15.785 49.0433 16.775 49.135 17.765 49.025C18.6817 48.915 19.5983 48.585 20.515 48.035C21.4683 47.4483 22.22 46.605 22.77 45.505C22.99 45.1017 23.1733 44.6433 23.32 44.13C23.4667 43.6167 23.5767 43.14 23.65 42.7C23.7967 41.3067 23.925 39.6933 24.035 37.86C24.145 35.99 24.2367 34.0833 24.31 32.14C24.3833 30.1967 24.42 28.29 24.42 26.42C24.42 24.55 24.4017 22.8633 24.365 21.36C24.4383 20.7 24.64 20.095 24.97 19.545C25.2633 19.0683 25.685 18.6467 26.235 18.28C26.785 17.9133 27.5367 17.73 28.49 17.73C29.26 17.7667 29.8833 17.9683 30.36 18.335C30.8367 18.665 31.2217 19.0317 31.515 19.435C31.845 19.9117 32.0833 20.4617 32.23 21.085Z" fill="white"/>
</svg>
