<?xml version="1.0" encoding="UTF-8"?>
<svg version="1.1" xmlns="http://www.w3.org/2000/svg" width="240" height="196">
<path d="M0 0 C3 1.5 3 1.5 5 4 C7.09895136 10.49041995 7.23659181 16.44580284 7.125 23.2265625 C7.11742676 24.29184174 7.10985352 25.35712097 7.10205078 26.4546814 C7.06963906 30.97698485 7.01360045 35.49891477 6.95898438 40.02099609 C5.52417552 63.02417679 5.52417552 63.02417679 13 84 C16.65355613 87.56444501 19.54612105 88.26945797 24.5 88.4375 C30.31723193 88.2007063 34.00889827 86.99110173 38.1875 82.8125 C43.3401473 74.81701281 43.66305108 66.83825114 44.125 57.5625 C44.20504938 56.16296081 44.28587435 54.7634658 44.36743164 53.36401367 C44.78993962 45.82334215 45.06824414 38.28479181 45.23828125 30.734375 C45.2652005 29.60714272 45.2652005 29.60714272 45.29266357 28.45713806 C45.37763469 24.82166237 45.44546351 21.18730607 45.48291016 17.55102539 C45.50788574 16.24125732 45.53286133 14.93148926 45.55859375 13.58203125 C45.57204834 12.42936768 45.58550293 11.2767041 45.59936523 10.08911133 C46.04374843 6.66267586 46.96878304 4.76800042 49 2 C53.00955952 -0.70583771 57.32676807 -0.68429467 62 0 C65.50892353 2.09042253 67.7033306 4.1099918 69 8 C69.78586765 13.33831986 70.15841356 18.55491819 70.16796875 23.953125 C70.1721582 24.68726624 70.17634766 25.42140747 70.18066406 26.17779541 C70.19037091 28.53525257 70.19046571 30.89252631 70.1875 33.25 C70.18722809 34.0541333 70.18695618 34.8582666 70.18667603 35.68676758 C70.10937708 85.2916644 70.10937708 85.2916644 54.6875 102.0625 C46.50187416 109.28404102 34.07357631 113.82679633 23.1171875 113.28125 C10.08931656 111.55061032 0.52258006 106.76685215 -8.0234375 96.7109375 C-19.66623575 80.74235651 -18.18675272 60.34951796 -18.18530273 41.56347656 C-18.18749964 38.37551722 -18.20573882 35.18789889 -18.22460938 32 C-18.22754244 29.94531367 -18.22952782 27.89062571 -18.23046875 25.8359375 C-18.23765427 24.89712738 -18.24483978 23.95831726 -18.25224304 22.99105835 C-18.20046448 7.81934511 -18.20046448 7.81934511 -14 2.4375 C-9.57870843 -0.74030332 -5.30534085 -0.57648586 0 0 Z " fill="#FEFEFE" transform="translate(41,43)"/>
<path d="M0 0 C1.78672686 2.85459568 2.94338468 5.81046556 4 9 C4.928125 8.195625 5.85625 7.39125 6.8125 6.5625 C11.21795785 2.74443653 15.4440579 2.63558267 21.09375 2.61328125 C24.33184721 3.04415709 25.9544256 3.98353268 28.625 5.8125 C30.74248521 7.27827855 30.74248521 7.27827855 33 8 C35.50522911 7.09883845 37.40887799 5.78967818 39.61328125 4.3046875 C44.50876753 1.62859516 50.0290645 2.12920856 55.265625 3.6640625 C61.72321156 6.49849935 66.21910606 11.40414219 68.8125 17.9375 C72.2351692 29.8363088 71.28176046 43.69546056 71 56 C70.97164063 57.24910156 70.94328125 58.49820313 70.9140625 59.78515625 C70.83285156 61.50025391 70.83285156 61.50025391 70.75 63.25 C70.70359375 64.24515625 70.6571875 65.2403125 70.609375 66.265625 C69.84472955 69.69672638 68.39180083 71.46433145 66 74 C62.86128812 75.56935594 60.46144178 75.35201103 57 75 C53.31315246 72.24292596 52.12992014 70.70989513 51.29296875 66.13671875 C51.23277513 64.6544509 51.19891234 63.17094565 51.1875 61.6875 C51.16236328 60.89931885 51.13722656 60.1111377 51.11132812 59.29907227 C50.92662097 52.70700579 50.98669329 46.10948706 51.01953125 39.515625 C51.32464806 31.96848291 51.32464806 31.96848291 48.61328125 25.30078125 C47.00790011 23.80102527 47.00790011 23.80102527 44.5 23.5 C41.87578152 23.76326464 41.87578152 23.76326464 40.3515625 25.859375 C38.35835012 30.49100146 38.72955433 34.76868891 38.875 39.75 C38.90476015 41.81375181 38.93076762 43.87756097 38.953125 45.94140625 C38.97149414 47.4730542 38.97149414 47.4730542 38.99023438 49.03564453 C39.00415853 53.26232138 38.85858641 57.46793502 38.625 61.6875 C38.57835205 62.71858887 38.57835205 62.71858887 38.53076172 63.77050781 C38.31845837 67.27928705 37.9476133 70.0322083 36 73 C33.32366974 75.0815902 31.88246332 74.99587591 28.4375 74.875 C25 74 25 74 23.125 72.1875 C21.37712607 68.78885625 20.87874652 65.66912842 20.79467773 61.87402344 C20.7647599 60.67323151 20.7647599 60.67323151 20.73423767 59.44818115 C20.71752518 58.59387512 20.70081268 57.73956909 20.68359375 56.859375 C20.66281265 55.97719299 20.64203156 55.09501099 20.62062073 54.18609619 C20.55535133 51.37414169 20.49634553 48.56209555 20.4375 45.75 C20.39429327 43.84113644 20.35067829 41.93228207 20.30664062 40.0234375 C20.19969313 35.34905174 20.09836215 30.67457398 20 26 C18.55380529 25.78618695 17.10541725 25.58716936 15.65625 25.39453125 C14.84994141 25.28214111 14.04363281 25.16975098 13.21289062 25.05395508 C10.80322677 24.78134323 10.80322677 24.78134323 8.5 26.6875 C5.64870326 31.08324914 5.84207076 35.5043394 5.7890625 40.6171875 C5.76099431 42.12631294 5.73232985 43.63542738 5.703125 45.14453125 C5.66191092 47.50992526 5.62499873 49.87511388 5.59863281 52.24072266 C5.57090193 54.53330165 5.52503849 56.82496548 5.4765625 59.1171875 C5.47330963 59.81738007 5.47005676 60.51757263 5.46670532 61.23898315 C5.35203953 65.85802796 4.41994354 69.06679952 2 73 C-1.54540297 75.11665849 -5.29763972 75.07951248 -9.3125 74.625 C-12.47542828 72.71253174 -13.20891741 71.01738692 -14.3977356 67.58505249 C-15.66271381 62.15548524 -15.4463426 56.59792867 -15.43359375 51.05078125 C-15.43816288 49.70655557 -15.44347061 48.36233221 -15.44947815 47.01811218 C-15.45836751 44.21502118 -15.45603142 41.41221579 -15.44604492 38.60913086 C-15.43451522 35.02451685 -15.45484726 31.44088215 -15.48396206 27.85639668 C-15.50233223 25.08619484 -15.50203088 22.31622793 -15.49632454 19.54598045 C-15.49609765 17.5845204 -15.5129675 15.62308232 -15.53013611 13.66169739 C-15.52075516 12.46663071 -15.51137421 11.27156403 -15.50170898 10.0402832 C-15.50154282 8.99185745 -15.50137665 7.9434317 -15.50120544 6.86323547 C-14.87434957 3.28219699 -13.48464547 1.60297667 -11 -1 C-7.19404362 -2.96859813 -3.71983098 -1.72706438 0 0 Z " fill="#FDFDFD" transform="translate(146,45)"/>
<path d="M0 0 C0.68505615 -0.00335861 1.3701123 -0.00671722 2.07592773 -0.01017761 C4.33522364 -0.0196583 6.59444522 -0.02162918 8.85375977 -0.02270508 C10.42790253 -0.02591935 12.002045 -0.02928356 13.57618713 -0.03279114 C16.8738779 -0.03877497 20.17154247 -0.04063177 23.46923828 -0.04003906 C27.69039696 -0.03993741 31.91138754 -0.05359595 36.13250637 -0.07081127 C39.3830492 -0.08194021 42.63355148 -0.08395801 45.8841114 -0.08342934 C47.44020226 -0.08460786 48.99629421 -0.08902247 50.55236626 -0.0967617 C52.73034258 -0.10658097 54.90795507 -0.10367622 57.0859375 -0.09765625 C58.324077 -0.09908127 59.56221649 -0.10050629 60.83787537 -0.10197449 C65.01716009 0.2140331 67.90237311 1.02032362 70.98266602 3.89526367 C72.10766602 6.14526367 72.10766602 6.14526367 72.10766602 9.14526367 C70.8314166 12.97401192 69.49314386 13.98721085 66.10766602 16.14526367 C62.73071289 16.64646912 62.73071289 16.64646912 58.82641602 16.64697266 C57.75472168 16.65507713 57.75472168 16.65507713 56.66137695 16.66334534 C54.30971301 16.67580921 51.95927905 16.65935866 49.60766602 16.64135742 C47.96769141 16.64151247 46.32771643 16.64300234 44.68774414 16.64576721 C41.25463618 16.64715015 37.82194652 16.63461119 34.38891602 16.61181641 C29.99388547 16.58343183 25.59954973 16.58617038 21.20446777 16.59890652 C17.81919446 16.60586991 14.43408102 16.59806693 11.04882812 16.58564949 C9.42855442 16.58114139 7.80826351 16.58079259 6.18798828 16.58471489 C3.92127451 16.58763366 1.65550969 16.57108969 -0.61108398 16.54931641 C-1.89950195 16.54391342 -3.18791992 16.53851044 -4.51538086 16.53294373 C-8.14981347 16.11570458 -10.00814488 15.35466756 -12.89233398 13.14526367 C-14.89233398 10.14526367 -14.89233398 10.14526367 -14.70483398 7.14526367 C-13.87406844 4.07782168 -13.4496705 2.94487085 -10.89233398 1.14526367 C-7.28559135 -0.07185957 -3.78162084 0.01164977 0 0 Z " fill="#FDFDFD" transform="translate(145.892333984375,132.854736328125)"/>
</svg>
